<svg width="64" height="64" viewBox="0 0 64 64" fill="none" xmlns="http://www.w3.org/2000/svg">
<mask id="mask0_130_18" style="mask-type:alpha" maskUnits="userSpaceOnUse" x="0" y="0" width="64" height="64">
<path fill-rule="evenodd" clip-rule="evenodd" d="M16 32.0001C16 31.4697 16.2107 30.961 16.5858 30.5859C16.9609 30.2108 17.4696 30.0001 18 30.0001H41.172L32.584 21.4161C32.2085 21.0406 31.9975 20.5312 31.9975 20.0001C31.9975 19.469 32.2085 18.9597 32.584 18.5841C32.9595 18.2086 33.4689 17.9976 34 17.9976C34.5311 17.9976 35.0405 18.2086 35.416 18.5841L47.416 30.5841C47.6023 30.7699 47.75 30.9906 47.8508 31.2336C47.9517 31.4766 48.0036 31.7371 48.0036 32.0001C48.0036 32.2632 47.9517 32.5237 47.8508 32.7667C47.75 33.0096 47.6023 33.2303 47.416 33.4161L35.416 45.4161C35.0405 45.7917 34.5311 46.0027 34 46.0027C33.4689 46.0027 32.9595 45.7917 32.584 45.4161C32.2085 45.0406 31.9975 44.5312 31.9975 44.0001C31.9975 43.469 32.2085 42.9597 32.584 42.5841L41.172 34.0001H18C17.4696 34.0001 16.9609 33.7894 16.5858 33.4143C16.2107 33.0393 16 32.5306 16 32.0001Z" fill="black"/>
</mask>
<g mask="url(#mask0_130_18)">
<rect width="70" height="64" fill="#474F62"/>
</g>
</svg>
