<svg width="47" height="42" viewBox="0 0 47 42" fill="none" xmlns="http://www.w3.org/2000/svg">
<path d="M44.7735 2.20592C44.7559 2.12994 44.7145 2.06005 44.654 2.00445C44.5936 1.94886 44.5167 1.90987 44.4324 1.89209C38.8112 0.66086 25.8261 5.04793 18.7836 11.3504C17.5285 12.4652 16.384 13.6757 15.3631 14.9681C13.1924 14.7922 11.0217 14.9404 9.17345 15.6624C3.95439 17.7176 2.43591 23.085 2.0121 25.3892C1.98914 25.5154 1.99895 25.6447 2.04076 25.767C2.08258 25.8894 2.15529 26.0014 2.25324 26.0945C2.3512 26.1876 2.47178 26.2592 2.60563 26.3039C2.73948 26.3485 2.88302 26.365 3.02511 26.3519L11.4052 25.528C11.411 26.0941 11.4489 26.6595 11.5189 27.2221C11.5626 27.611 11.7563 27.974 12.0667 28.2488L15.3115 31.1547C15.6185 31.4328 16.0243 31.6064 16.4589 31.6453C17.0833 31.7077 17.7108 31.7417 18.3391 31.7471L17.4202 39.2456C17.4058 39.3727 17.4243 39.501 17.4742 39.6207C17.524 39.7404 17.604 39.8482 17.7078 39.9358C17.8116 40.0234 17.9365 40.0885 18.0729 40.1259C18.2092 40.1634 18.3534 40.1723 18.4942 40.1519C21.068 39.7816 27.0737 38.4217 29.3551 33.7486C30.1613 32.0915 30.3267 30.1576 30.1407 28.2229C31.5881 27.3094 32.9436 26.2845 34.1917 25.1596C41.26 18.8646 46.1276 7.49095 44.7735 2.20592ZM27.909 17.0048C27.2916 16.452 26.8711 15.7476 26.7007 14.9808C26.5303 14.214 26.6177 13.4192 26.9517 12.6968C27.2857 11.9745 27.8515 11.3571 28.5773 10.9227C29.3032 10.4883 30.1566 10.2564 31.0296 10.2564C31.9027 10.2564 32.7561 10.4883 33.4819 10.9227C34.2078 11.3571 34.7735 11.9745 35.1076 12.6968C35.4416 13.4192 35.529 14.214 35.3586 14.9808C35.1882 15.7476 34.7677 16.452 34.1503 17.0048C33.7408 17.3723 33.2544 17.6639 32.7189 17.8628C32.1834 18.0617 31.6094 18.1641 31.0296 18.1641C30.4499 18.1641 29.8759 18.0617 29.3404 17.8628C28.8049 17.6639 28.3185 17.3723 27.909 17.0048V17.0048Z" stroke="#474F62" stroke-width="3" stroke-linecap="round" stroke-linejoin="round"/>
<path d="M7.75417 30.3193C6.71574 30.4334 5.74967 30.8546 5.00938 31.5162C3.17396 33.1642 3 39.2677 3 39.2677C3 39.2677 9.825 39.112 11.6615 37.4678C12.4037 36.8064 12.8753 35.9405 13 35.0098" stroke="#474F62" stroke-width="3" stroke-linecap="round" stroke-linejoin="round"/>
</svg>
