<svg width="30" height="42" viewBox="0 0 30 42" fill="none" xmlns="http://www.w3.org/2000/svg">
<path d="M0 0L7.11 15.7942C2.85 18.2152 0 22.5235 0 27.4417C0 35.0064 6.72833 41.1625 15 41.1625C23.2717 41.1625 30 35.0064 30 27.4417C30 22.525 27.15 18.2167 22.89 15.7942L30 0H26.3967L19.8767 14.4801C18.7662 14.1263 17.6136 13.8945 16.4433 13.7894L22.645 0H19.0417L12.7883 13.8885C11.8814 14.01 10.9887 14.208 10.1217 14.4801L3.60333 0H0ZM7.35333 0L11.5883 9.4125L13.3917 5.40754L10.9583 0H7.35333ZM15 16.7699C21.4317 16.7699 26.6667 21.557 26.6667 27.4417C26.6667 33.3264 21.4317 38.1134 15 38.1134C8.56833 38.1134 3.33333 33.3264 3.33333 27.4417C3.33333 21.557 8.56833 16.7699 15 16.7699ZM15 21.5905L13.0533 25.5848L8.33333 26.0574L11.8667 28.9601L10.8717 33.2441L15 31.067L19.1283 33.2471L18.135 28.9632L21.6667 26.0559L16.9467 25.5833L15 21.589V21.5905Z" fill="#474F62"/>
</svg>
