<svg width="47" height="42" viewBox="0 0 47 42" fill="none" xmlns="http://www.w3.org/2000/svg">
<path d="M8.1272 8.05359H31V10.1479H8.1272V8.05359ZM8.1272 18.5252H19.6865V20.6196H8.1272V18.5252ZM30.1108 13.2894H8.1272V15.3837H27.825L30.1108 13.2894ZM14.979 35.3741C15.3635 35.7778 15.8516 36.0878 16.3993 36.276C16.947 36.4643 17.5372 36.525 18.1169 36.4527H29.2717C29.5371 36.4527 29.7916 36.3562 29.9793 36.1843C30.1669 36.0125 30.2724 35.7794 30.2724 35.5364C30.2724 35.2934 30.1669 35.0604 29.9793 34.8885C29.7916 34.7167 29.5371 34.6202 29.2717 34.6202H18.1169C16.8146 34.5992 17.0462 33.5638 17.2291 33.2431C17.4677 32.8667 17.6536 32.4643 17.7824 32.0454C17.8679 31.7084 17.8276 31.3548 17.668 31.0412C17.5083 30.7275 17.2386 30.4719 16.9018 30.315C16.3606 30.0918 15.7545 30.0371 15.1761 30.1593C14.5978 30.2815 14.0791 30.5739 13.6996 30.9917C13.2078 31.4564 12.5245 32.1672 11.8698 32.8583C12.2743 31.4067 12.799 29.544 13.3136 27.7272C13.4611 27.3132 13.4317 26.8635 13.2314 26.4685C13.0312 26.0736 12.6748 25.7628 12.2343 25.5988C11.7464 25.4456 11.2132 25.4675 10.7422 25.6601C10.2713 25.8528 9.89769 26.2018 9.69684 26.6368C9.07928 27.7246 4.19021 35.2262 4.14161 35.3021C4.07421 35.4054 4.0297 35.5199 4.01061 35.6389C3.99152 35.758 3.99823 35.8793 4.03036 35.996C4.06248 36.1127 4.11939 36.2225 4.19784 36.319C4.27629 36.4156 4.37473 36.497 4.48756 36.5587C4.71542 36.6834 4.98802 36.72 5.24539 36.6606C5.50276 36.6012 5.72382 36.4506 5.85993 36.242C6.04291 35.9605 9.94558 29.9747 11.1764 27.9759C10.2501 31.2483 9.22938 34.8898 9.16934 35.217C9.10175 35.4576 9.12204 35.7119 9.2271 35.9409C9.33216 36.1699 9.51622 36.3612 9.75116 36.4854C10.0128 36.6043 10.3103 36.6399 10.5966 36.5868C10.8829 36.5338 11.1417 36.3949 11.3322 36.1922C11.5124 36.043 11.8497 35.6883 12.7003 34.7838C13.4928 33.9303 14.3045 33.092 15.1349 32.2693C15.4465 31.9682 15.6352 32.1017 15.4522 32.3976C15.0943 32.8117 14.8622 33.3051 14.7793 33.8278C14.6965 34.3504 14.7659 34.8839 14.9805 35.3741H14.979Z" fill="#474F62"/>
<path d="M37.1429 25.3342V38.5899H2.85714V2.57266H37.1429V8.9953L39.0429 7.28448C39.3353 7.02473 39.656 6.79203 40 6.58986V1.28633C40 0.945173 39.8495 0.61799 39.5816 0.376757C39.3137 0.135523 38.9503 0 38.5714 0H1.42857C1.04969 0 0.686328 0.135523 0.418419 0.376757C0.15051 0.61799 0 0.945173 0 1.28633V39.8762C0 40.2174 0.15051 40.5445 0.418419 40.7858C0.686328 41.027 1.04969 41.1625 1.42857 41.1625H38.5714C38.9503 41.1625 39.3137 41.027 39.5816 40.7858C39.8495 40.5445 40 40.2174 40 39.8762V24.9895C39.1238 25.4076 38.1104 25.5299 37.1429 25.3342V25.3342Z" fill="#474F62"/>
<path d="M46.1675 12.4914L45.4132 11.8156C45.7988 11.3592 45.9939 10.7964 45.965 10.2246C45.936 9.65283 45.6847 9.10815 45.2546 8.68491C44.6963 8.2441 43.9662 8.01876 43.2233 8.05797C42.4804 8.09717 41.7849 8.39775 41.2883 8.89423L23.2235 25.0749L22.0163 29.1346C21.9972 29.1877 21.9948 29.2445 22.0096 29.2988C22.0243 29.353 22.0555 29.4025 22.0997 29.4419C22.1439 29.4812 22.1994 29.5088 22.26 29.5216C22.3206 29.5344 22.384 29.532 22.4432 29.5145L26.959 28.4201L43.8224 13.3131L44.5349 13.9527C44.5846 13.9972 44.6241 14.0501 44.651 14.1083C44.678 14.1665 44.6918 14.2289 44.6918 14.2919C44.6918 14.3549 44.678 14.4173 44.651 14.4755C44.6241 14.5337 44.5846 14.5865 44.5349 14.631L37.4431 20.9842C37.2268 21.1781 37.1053 21.4411 37.1055 21.7153C37.1056 21.9895 37.2273 22.2524 37.4438 22.4462C37.6603 22.64 37.9539 22.7488 38.2599 22.7486C38.566 22.7485 38.8595 22.6395 39.0758 22.4455L46.1675 16.0924C46.7006 15.6146 47 14.9667 47 14.2912C47 13.6157 46.7006 12.9679 46.1675 12.4901V12.4914Z" fill="#474F62"/>
</svg>
